<svg width="49" height="49" viewBox="0 0 49 49" fill="none" xmlns="http://www.w3.org/2000/svg">
<path d="M32.6667 18.375H16.3333C9.56785 18.375 4.08334 23.8595 4.08334 30.625C4.08334 37.3905 9.56785 42.875 16.3333 42.875H32.6667C39.4322 42.875 44.9167 37.3905 44.9167 30.625C44.9167 23.8595 39.4322 18.375 32.6667 18.375Z" stroke="white" stroke-width="4.58333" stroke-linejoin="round"/>
<path d="M24.5 16.3333V9.91636H32.6667V4.08331M16.3333 26.5416V34.7083V26.5416ZM12.25 30.625H20.4167H12.25Z" stroke="white" stroke-width="4.58333" stroke-linecap="round" stroke-linejoin="round"/>
<path d="M32.6667 34.7083C34.9218 34.7083 36.75 32.8801 36.75 30.625C36.75 28.3698 34.9218 26.5416 32.6667 26.5416C30.4115 26.5416 28.5833 28.3698 28.5833 30.625C28.5833 32.8801 30.4115 34.7083 32.6667 34.7083Z" stroke="white" stroke-width="4.58333" stroke-linejoin="round"/>
</svg>
